# xmcd
#
# Track frame offsets:
#	150
#	10770
#	24182
#	36092
#	46850
#	59062
#	70922
#	81710
#	94985
#	106392
#	117585
#	130302
#	142327
#	153602
#	164940
#	175365
#	187130
#	199452
#	212840
#	222372
#	235330
#
# Disc length: 3286 seconds
#
# Revision: 0
# Processed by: cddbd v1.5.1PL2 Copyright (c) Steve Scherf et al.
# Submitted via: dBpowerAMP V4.0
#
DISCID=540cd415
DTITLE=bob gaddy - harlem blues poerator
DYEAR=2005
DGENRE=Blues
TTITLE0=come on little children
TTITLE1=stormy monday blues
TTITLE2=operator
TTITLE3=out of my mind
TTITLE4=forgive me
TTITLE5=could i
TTITLE6=what wrong did i do
TTITLE7=paper lady
TTITLE8=gonna be at the station
TTITLE9=you are the one
TTITLE10=the girl who promises
TTITLE11=the things that i used to do
TTITLE12=i love my baby
TTITLE13=take my advice
TTITLE14=rip and run
TTITLE15=early one morning
TTITLE16=what would i do
TTITLE17=till the day i die
TTITLE18=don't tell her
TTITLE19=woe woe is me
TTITLE20=i'll go my way
EXTD=
EXTT0=
EXTT1=
EXTT2=
EXTT3=
EXTT4=
EXTT5=
EXTT6=
EXTT7=
EXTT8=
EXTT9=
EXTT10=
EXTT11=
EXTT12=
EXTT13=
EXTT14=
EXTT15=
EXTT16=
EXTT17=
EXTT18=
EXTT19=
EXTT20=
PLAYORDER=
